<svg xmlns="http://www.w3.org/2000/svg" xmlns:xlink="http://www.w3.org/1999/xlink" viewBox="0 0 21 32"><path d="M 10.388 0.001 L 10.562 0 C 11.122 0.001 11.676 0.023 12.226 0.13 L 12.352 0.154 C 13.852 0.448 15.194 1.038 16.464 1.894 L 16.464 1.984 L 16.558 2.016 C 16.71 2.084 16.836 2.175 16.967 2.276 L 17.041 2.331 C 17.103 2.377 17.162 2.428 17.22 2.478 L 17.22 2.568 L 17.309 2.568 L 17.309 2.658 L 17.398 2.658 L 17.398 2.748 L 17.478 2.784 C 17.577 2.838 17.642 2.892 17.72 2.971 L 17.798 3.049 C 17.824 3.076 17.85 3.102 17.877 3.13 L 17.958 3.211 L 18.035 3.288 L 18.104 3.359 C 18.155 3.422 18.155 3.422 18.155 3.512 L 18.288 3.557 C 18.37 3.651 18.449 3.749 18.525 3.849 L 18.59 3.935 C 19.045 4.534 19.045 4.534 19.045 4.68 L 19.134 4.68 C 19.312 4.918 19.312 4.918 19.312 5.085 L 19.401 5.085 C 19.462 5.209 19.524 5.334 19.585 5.459 C 19.641 5.572 19.698 5.684 19.755 5.796 C 19.957 6.195 20.135 6.597 20.29 7.017 L 20.333 7.13 C 20.604 7.863 20.772 8.624 20.869 9.399 L 20.883 9.502 C 21.099 11.12 20.951 12.757 20.412 14.294 C 20.381 14.383 20.351 14.472 20.321 14.561 C 20.209 14.885 20.08 15.202 19.934 15.512 C 19.904 15.58 19.873 15.648 19.842 15.716 C 19.563 16.326 19.246 16.909 18.911 17.489 L 18.85 17.596 C 18.477 18.245 18.088 18.884 17.694 19.519 C 17.552 19.748 17.413 19.979 17.277 20.211 C 17.168 20.395 17.057 20.577 16.945 20.759 C 16.698 21.165 16.483 21.581 16.285 22.013 C 16.197 22.204 16.106 22.393 16.011 22.579 C 15.896 22.808 15.803 23.042 15.716 23.282 C 15.68 23.378 15.641 23.472 15.599 23.565 C 15.506 23.782 15.445 24.01 15.38 24.236 C 15.326 24.415 15.273 24.592 15.218 24.77 L 15.189 24.865 C 15.054 25.297 14.821 25.628 14.551 25.984 L 14.476 26.092 L 14.417 26.163 L 14.328 26.163 L 14.328 26.253 C 13.355 27.136 12.183 27.304 10.92 27.299 C 10.789 27.298 10.657 27.299 10.526 27.299 C 9.515 27.3 8.658 27.16 7.788 26.613 L 7.708 26.563 C 7.644 26.523 7.582 26.478 7.521 26.433 L 7.521 26.343 L 7.432 26.343 L 7.432 26.253 L 7.343 26.253 L 7.343 26.163 L 7.254 26.163 L 7.254 26.074 L 7.121 26.029 C 6.692 25.529 6.466 24.941 6.284 24.315 C 6.183 23.977 6.048 23.656 5.911 23.332 C 5.877 23.246 5.846 23.159 5.816 23.071 C 5.726 22.826 5.597 22.602 5.472 22.374 L 5.399 22.24 C 5.309 22.076 5.221 21.915 5.119 21.759 L 5.119 21.624 L 5.03 21.624 L 4.995 21.557 C 4.819 21.225 4.61 20.914 4.401 20.602 C 4.347 20.52 4.293 20.439 4.239 20.357 C 4.19 20.284 4.141 20.21 4.092 20.137 C 3.873 19.802 3.873 19.802 3.873 19.692 L 3.784 19.692 C 3.715 19.599 3.715 19.599 3.631 19.467 C 3.599 19.416 3.566 19.366 3.534 19.315 L 3.481 19.234 C 3.394 19.099 3.302 18.967 3.211 18.835 C 2.688 18.069 2.17 17.297 1.693 16.501 L 1.608 16.36 C 1.411 16.026 1.237 15.682 1.07 15.332 L 0.992 15.171 C 0.291 13.699 -0.03 12.201 0.002 10.568 L 0.004 10.467 C 0.042 8.669 0.576 6.944 1.381 5.354 L 1.47 5.354 L 1.479 5.265 C 1.53 5.073 1.629 4.923 1.735 4.756 L 1.796 4.655 C 1.909 4.473 1.909 4.473 1.96 4.411 L 2.049 4.411 L 2.091 4.304 C 2.138 4.186 2.138 4.186 2.182 4.096 L 2.271 4.096 L 2.305 3.998 C 2.366 3.859 2.437 3.759 2.538 3.647 L 2.627 3.647 L 2.657 3.574 C 2.737 3.429 2.844 3.313 2.955 3.192 L 3.02 3.118 C 3.135 2.993 3.234 2.913 3.384 2.838 C 3.415 2.779 3.445 2.719 3.473 2.658 C 3.546 2.581 3.546 2.581 3.628 2.512 L 3.71 2.441 C 3.784 2.388 3.784 2.388 3.873 2.388 L 3.873 2.298 C 3.938 2.24 3.938 2.24 4.023 2.18 L 4.108 2.12 C 4.184 2.074 4.184 2.074 4.273 2.074 L 4.273 1.984 C 4.373 1.907 4.373 1.907 4.51 1.818 L 4.659 1.72 L 4.807 1.624 L 4.927 1.543 C 6.54 0.464 8.472 -0.005 10.388 0.001 Z M 8.322 0.995 L 8.213 1.018 C 7.354 1.203 6.526 1.556 5.761 1.988 C 5.623 2.065 5.483 2.139 5.341 2.208 L 5.341 2.298 L 5.246 2.332 C 5.102 2.395 4.993 2.475 4.868 2.571 L 4.799 2.625 C 4.465 2.884 4.134 3.143 3.844 3.453 C 3.784 3.512 3.784 3.512 3.695 3.557 L 3.695 3.647 L 3.606 3.647 L 3.606 3.736 L 3.517 3.736 C 3.446 3.815 3.377 3.895 3.311 3.978 L 3.201 4.114 C 3.108 4.219 3.108 4.219 3.117 4.321 L 3.028 4.321 C 2.97 4.385 2.97 4.385 2.913 4.471 L 2.846 4.567 L 2.775 4.672 L 2.701 4.778 C 2.632 4.88 2.563 4.982 2.494 5.085 L 2.403 5.219 C 2.169 5.578 1.975 5.96 1.782 6.343 L 1.708 6.489 C 0.8 8.372 0.509 10.772 0.981 12.815 L 1.005 12.922 C 1.245 13.972 1.701 14.971 2.269 15.88 C 2.316 15.961 2.316 15.961 2.36 16.096 L 2.449 16.096 L 2.465 16.175 C 2.496 16.284 2.54 16.362 2.601 16.458 L 2.667 16.563 L 2.738 16.675 L 2.811 16.789 C 2.86 16.866 2.908 16.942 2.957 17.019 C 3.022 17.121 3.086 17.223 3.149 17.326 L 3.204 17.414 C 3.238 17.469 3.272 17.524 3.305 17.579 C 3.344 17.64 3.385 17.7 3.428 17.759 L 3.517 17.759 L 3.549 17.851 C 3.62 18.016 3.71 18.161 3.806 18.312 L 3.861 18.4 C 3.907 18.473 3.956 18.543 4.006 18.613 L 4.095 18.613 L 4.131 18.712 C 4.184 18.837 4.245 18.934 4.324 19.044 C 4.502 19.295 4.672 19.55 4.841 19.807 L 4.935 19.949 C 5.026 20.088 5.117 20.227 5.208 20.366 L 5.282 20.48 C 5.987 21.558 5.987 21.558 6.098 21.894 L 6.187 21.894 L 6.204 21.973 C 6.23 22.071 6.264 22.158 6.305 22.251 L 6.35 22.352 L 6.398 22.458 L 6.447 22.569 C 6.531 22.758 6.616 22.946 6.704 23.133 C 6.895 23.556 7.038 24.003 7.165 24.45 C 7.263 24.781 7.421 25.068 7.61 25.354 L 7.699 25.354 L 7.735 25.435 C 7.991 25.913 8.56 26.194 9.051 26.349 C 10.369 26.707 12.105 26.696 13.312 26.019 C 13.437 25.94 13.551 25.858 13.661 25.759 L 13.661 25.669 L 13.75 25.669 L 13.75 25.579 L 13.839 25.579 L 13.839 25.489 L 13.916 25.462 C 14.058 25.374 14.126 25.253 14.206 25.11 L 14.258 25.017 C 14.443 24.667 14.545 24.291 14.648 23.909 C 14.739 23.569 14.855 23.251 14.996 22.928 C 15.028 22.849 15.061 22.771 15.093 22.692 C 15.268 22.27 15.452 21.86 15.671 21.459 C 15.745 21.323 15.813 21.185 15.88 21.045 C 16.055 20.688 16.261 20.348 16.464 20.006 L 16.56 19.844 C 16.714 19.582 16.87 19.322 17.028 19.063 L 17.114 18.921 C 17.172 18.827 17.229 18.733 17.286 18.639 L 17.365 18.509 L 17.437 18.393 C 17.494 18.303 17.494 18.303 17.487 18.208 L 17.576 18.208 C 17.62 18.13 17.664 18.051 17.707 17.972 L 17.781 17.84 C 17.833 17.735 17.867 17.649 17.888 17.534 L 17.977 17.534 L 18.024 17.445 C 18.175 17.164 18.332 16.887 18.496 16.614 C 18.565 16.502 18.565 16.502 18.555 16.366 L 18.644 16.366 C 18.822 16.012 18.996 15.656 19.158 15.295 C 19.199 15.204 19.242 15.114 19.286 15.025 C 19.604 14.377 19.797 13.663 19.973 12.964 L 19.999 12.863 C 20.15 12.238 20.175 11.624 20.174 10.984 L 20.173 10.854 C 20.171 9.79 20.01 8.803 19.712 7.781 L 19.683 7.682 C 19.554 7.245 19.377 6.841 19.178 6.433 L 19.108 6.288 C 18.961 5.988 18.805 5.693 18.644 5.399 L 18.555 5.399 L 18.544 5.327 C 18.498 5.179 18.42 5.067 18.335 4.939 L 18.24 4.792 L 18.155 4.68 L 18.066 4.68 L 18.03 4.602 C 17.855 4.266 17.578 4 17.311 3.739 C 17.22 3.647 17.22 3.647 17.176 3.557 L 17.087 3.557 L 17.087 3.467 C 17.011 3.385 17.011 3.385 16.915 3.304 L 16.818 3.218 C 16.737 3.143 16.737 3.143 16.642 3.152 L 16.642 3.062 C 16.565 2.991 16.565 2.991 16.465 2.917 L 16.351 2.831 L 16.228 2.739 L 16.104 2.646 C 15.679 2.331 15.255 2.061 14.781 1.83 C 14.64 1.759 14.64 1.759 14.532 1.69 C 14.383 1.604 14.226 1.55 14.064 1.495 L 13.86 1.424 L 13.758 1.389 C 13.62 1.34 13.484 1.288 13.347 1.236 C 13.012 1.117 12.674 1.023 12.326 0.95 L 12.23 0.929 C 10.989 0.675 9.554 0.709 8.322 0.995 Z" fill="#a274d6"></path><path d="M 12.596 4.253 L 12.699 4.254 C 13.364 4.272 14.268 4.432 14.773 4.905 C 14.996 5.163 14.996 5.163 14.996 5.354 L 15.085 5.354 L 15.129 5.444 C 15.23 5.453 15.331 5.456 15.432 5.458 C 15.881 5.479 16.278 5.615 16.606 5.937 C 16.89 6.262 17.033 6.575 17.109 6.997 C 17.162 7.28 17.275 7.523 17.398 7.781 C 17.438 7.867 17.477 7.952 17.516 8.037 L 17.576 8.167 C 17.748 8.541 17.916 8.915 18.066 9.298 L 18.102 9.389 C 18.267 9.824 18.357 10.25 18.352 10.717 L 18.351 10.86 C 18.335 11.714 18.307 12.915 17.888 13.669 L 17.799 13.669 L 17.757 13.776 C 17.71 13.894 17.71 13.894 17.665 13.984 L 17.576 13.984 L 17.576 14.074 L 17.487 14.074 L 17.487 14.163 L 17.398 14.163 L 17.398 14.253 C 17.335 14.304 17.335 14.304 17.247 14.359 L 17.152 14.419 L 17.051 14.481 L 16.951 14.543 C 16.818 14.626 16.702 14.698 16.553 14.748 L 16.544 14.87 C 16.533 15.022 16.521 15.175 16.508 15.328 C 16.503 15.393 16.498 15.459 16.493 15.524 C 16.442 16.239 16.263 17 15.736 17.52 C 15.425 17.772 15.018 17.991 14.64 18.119 L 14.64 18.208 C 14.579 18.281 14.579 18.281 14.506 18.343 L 14.417 18.343 L 14.417 18.433 L 14.328 18.433 L 14.328 18.523 C 14.243 18.586 14.155 18.645 14.064 18.7 L 13.916 18.794 C 13.598 18.974 13.294 19.04 12.933 19.037 L 12.828 19.04 C 12.616 19.04 12.445 19.002 12.246 18.926 L 12.114 18.876 L 12.015 18.838 L 12.015 18.939 C 12.018 19.756 12.02 20.573 12.022 21.39 C 12.023 21.785 12.023 22.18 12.025 22.576 C 12.026 22.92 12.027 23.264 12.027 23.609 C 12.028 23.791 12.028 23.973 12.029 24.156 C 12.03 24.327 12.03 24.499 12.03 24.671 C 12.03 24.734 12.03 24.797 12.031 24.86 C 12.031 24.946 12.031 25.032 12.031 25.118 L 12.031 25.264 C 12.012 25.423 11.962 25.531 11.881 25.669 C 11.752 25.765 11.639 25.782 11.481 25.759 C 11.363 25.678 11.278 25.619 11.214 25.489 C 11.21 25.383 11.208 25.277 11.208 25.17 L 11.208 25.069 C 11.208 24.956 11.208 24.843 11.208 24.73 C 11.207 24.423 11.207 24.117 11.207 23.811 C 11.207 23.569 11.207 23.327 11.206 23.085 C 11.206 22.555 11.205 22.025 11.205 21.496 L 11.205 20.503 C 11.204 19.588 11.204 18.673 11.203 17.757 L 11.203 17.579 L 11.203 17.401 L 11.203 17.044 L 11.203 16.865 C 11.203 15.908 11.202 14.951 11.201 13.995 C 11.2 13.012 11.2 12.03 11.2 11.048 C 11.2 10.497 11.199 9.945 11.199 9.394 C 11.198 8.924 11.198 8.454 11.198 7.985 C 11.198 7.745 11.198 7.505 11.198 7.266 C 11.197 7.046 11.197 6.827 11.198 6.607 C 11.198 6.528 11.198 6.449 11.197 6.369 C 11.194 5.687 11.25 5.088 11.728 4.559 C 11.982 4.328 12.262 4.25 12.596 4.253 Z M 12.193 5.265 C 11.992 5.57 12.003 5.899 12.015 6.253 L 12.113 6.275 C 12.389 6.342 12.572 6.406 12.771 6.613 L 12.816 6.703 L 12.905 6.703 L 12.921 6.772 C 13.029 7.191 13.163 7.595 13.394 7.961 L 13.483 7.961 L 13.483 8.051 C 13.578 8.114 13.674 8.175 13.772 8.234 C 14.233 8.523 14.49 8.821 14.64 9.354 L 14.68 9.471 C 14.853 10.03 14.894 10.734 14.623 11.265 C 14.464 11.555 14.27 11.827 14.074 12.093 C 13.842 12.382 13.842 12.382 13.75 12.725 L 13.661 12.725 C 13.426 13.169 13.338 13.532 13.354 14.033 C 13.365 14.419 13.305 14.766 13.069 15.082 C 12.74 15.399 12.493 15.408 12.015 15.512 L 12.015 17.534 C 12.2 17.441 12.252 17.38 12.374 17.217 C 12.766 16.727 13.201 16.467 13.755 16.193 L 13.886 16.127 L 14.005 16.07 C 14.115 16 14.173 15.939 14.24 15.826 C 14.228 15.727 14.228 15.727 14.184 15.621 C 14.109 15.379 14.085 15.151 14.073 14.899 L 14.067 14.792 C 14.032 13.986 14.384 13.317 14.779 12.639 C 14.874 12.49 14.874 12.49 14.907 12.321 L 14.996 12.321 C 15.077 12.213 15.077 12.213 15.157 12.079 L 15.242 11.943 C 15.315 11.836 15.315 11.836 15.307 11.736 L 15.396 11.736 C 15.512 11.564 15.608 11.38 15.708 11.197 L 15.766 11.091 C 16.102 10.449 15.914 9.682 15.721 9.023 C 15.592 8.6 15.441 8.187 15.263 7.781 L 15.174 7.781 L 15.14 7.697 C 15.076 7.586 15.024 7.559 14.907 7.512 L 14.907 7.422 L 14.831 7.398 L 14.493 7.29 L 14.374 7.252 L 14.259 7.216 L 14.154 7.182 C 14.079 7.158 14.003 7.133 13.928 7.107 L 13.928 7.017 L 13.839 7.017 L 13.839 6.928 L 13.75 6.928 L 13.75 6.838 L 13.661 6.838 C 13.601 6.666 13.552 6.494 13.506 6.318 L 13.469 6.178 C 13.443 6.083 13.418 5.987 13.394 5.891 C 13.307 5.569 13.189 5.36 12.949 5.13 L 12.905 5.085 C 12.819 5.077 12.732 5.072 12.646 5.071 L 12.503 5.066 C 12.34 5.089 12.295 5.136 12.193 5.265 Z M 14.062 5.444 C 14.103 5.653 14.15 5.859 14.212 6.062 L 14.241 6.157 C 14.329 6.353 14.414 6.458 14.613 6.541 C 14.67 6.558 14.727 6.575 14.785 6.59 C 15.048 6.67 15.258 6.77 15.485 6.928 L 15.574 6.928 L 15.574 7.017 L 15.663 7.017 L 15.663 7.107 L 15.752 7.107 L 15.789 7.184 C 15.823 7.252 15.859 7.319 15.896 7.385 C 16.447 8.412 16.938 9.897 16.603 11.065 C 16.522 11.28 16.42 11.482 16.314 11.686 C 16.253 11.804 16.199 11.926 16.153 12.051 L 16.064 12.051 L 15.975 12.321 L 15.886 12.321 C 15.805 12.429 15.805 12.429 15.724 12.562 L 15.639 12.698 C 15.567 12.806 15.567 12.806 15.574 12.905 L 15.485 12.905 C 15.347 13.157 15.214 13.412 15.085 13.669 L 15.04 13.759 C 14.814 14.223 14.716 14.716 14.849 15.225 C 14.872 15.287 14.896 15.349 14.921 15.411 C 15.005 15.689 14.999 16.027 14.885 16.295 C 14.671 16.648 14.294 16.793 13.936 16.955 C 13.741 17.043 13.564 17.134 13.394 17.265 L 13.394 17.354 L 13.319 17.385 C 13.187 17.461 13.095 17.555 12.994 17.669 L 12.994 17.759 L 12.905 17.759 C 12.849 17.825 12.849 17.825 12.796 17.908 C 12.722 18.02 12.646 18.115 12.549 18.208 C 12.969 18.268 13.277 18.254 13.642 18.026 L 13.75 17.939 L 13.75 17.849 L 13.829 17.814 C 13.936 17.755 14.001 17.691 14.084 17.602 C 14.188 17.489 14.277 17.417 14.417 17.354 L 14.417 17.265 L 14.493 17.241 C 14.733 17.164 14.95 17.069 15.174 16.95 L 15.174 16.86 L 15.263 16.86 C 15.313 16.77 15.363 16.681 15.413 16.59 L 15.497 16.439 C 15.705 16.023 15.701 15.55 15.734 15.094 C 15.769 14.701 15.828 14.388 16.123 14.111 L 16.228 14.045 L 16.344 13.969 L 16.464 13.894 C 16.918 13.593 17.214 13.338 17.336 12.784 C 17.36 12.65 17.383 12.515 17.404 12.38 L 17.427 12.234 C 17.504 11.739 17.535 11.256 17.54 10.756 L 17.542 10.636 C 17.543 9.934 17.2 9.301 16.918 8.675 C 16.427 7.582 16.427 7.582 16.314 7.054 C 16.255 6.807 16.169 6.601 15.975 6.433 C 15.721 6.298 15.496 6.278 15.213 6.275 C 14.899 6.264 14.72 6.162 14.506 5.939 L 14.417 5.939 L 14.384 5.818 C 14.326 5.663 14.262 5.564 14.151 5.444 Z M 12.015 7.107 L 12.015 14.703 C 12.348 14.688 12.348 14.688 12.504 14.568 C 12.596 14.427 12.604 14.315 12.602 14.149 C 12.606 13.566 12.63 13.112 12.905 12.59 L 12.952 12.499 C 13.03 12.348 13.11 12.198 13.192 12.049 C 13.268 11.928 13.268 11.928 13.261 11.826 L 13.35 11.826 C 13.431 11.718 13.431 11.718 13.511 11.585 L 13.596 11.449 C 13.668 11.341 13.668 11.341 13.661 11.242 L 13.75 11.242 L 13.839 10.972 L 13.928 10.972 C 14.135 10.581 14.083 10.211 13.984 9.793 L 13.963 9.703 C 13.881 9.388 13.76 9.14 13.483 8.956 L 13.369 8.877 C 13.271 8.821 13.193 8.79 13.083 8.77 L 13.083 8.68 L 12.972 8.599 C 12.638 8.328 12.444 7.897 12.352 7.484 C 12.318 7.344 12.263 7.232 12.193 7.107 Z M 9.61 4.428 C 10.05 4.778 10.208 5.213 10.28 5.759 C 10.291 5.943 10.292 6.126 10.291 6.31 L 10.291 6.471 C 10.291 6.618 10.291 6.765 10.291 6.912 C 10.29 7.072 10.291 7.231 10.291 7.39 C 10.291 7.704 10.291 8.017 10.29 8.33 C 10.29 8.7 10.29 9.071 10.29 9.442 C 10.29 10.11 10.29 10.779 10.289 11.447 C 10.288 12.082 10.288 12.716 10.288 13.351 L 10.288 13.931 C 10.288 15.608 10.286 17.284 10.282 18.96 C 10.28 19.478 10.279 19.996 10.279 20.514 C 10.278 21.182 10.276 21.85 10.273 22.518 C 10.272 22.841 10.271 23.165 10.271 23.488 C 10.27 23.784 10.269 24.081 10.267 24.378 C 10.267 24.485 10.267 24.593 10.267 24.701 C 10.267 24.847 10.266 24.993 10.264 25.139 L 10.266 25.267 C 10.261 25.551 10.261 25.551 10.131 25.695 C 9.986 25.774 9.908 25.786 9.746 25.759 C 9.541 25.63 9.541 25.63 9.496 25.5 C 9.475 25.375 9.473 25.255 9.472 25.129 L 9.471 24.961 L 9.47 24.777 L 9.468 24.583 C 9.467 24.407 9.466 24.232 9.465 24.056 C 9.464 23.873 9.463 23.689 9.462 23.506 C 9.46 23.159 9.458 22.811 9.456 22.464 C 9.454 22.069 9.451 21.673 9.449 21.278 C 9.444 20.464 9.439 19.651 9.434 18.838 L 9.307 18.903 C 8.918 19.096 8.354 19.082 7.94 18.977 C 7.568 18.825 7.206 18.607 6.943 18.298 L 6.943 18.208 L 6.854 18.208 L 6.854 18.119 L 6.767 18.087 C 6.585 18.009 6.413 17.915 6.239 17.821 L 6.133 17.764 C 6.047 17.717 5.961 17.671 5.875 17.624 L 5.875 17.534 L 5.786 17.534 L 5.786 17.444 L 5.697 17.444 L 5.697 17.354 L 5.608 17.354 L 5.608 17.265 L 5.519 17.265 C 5.315 16.882 5.157 16.526 5.074 16.096 L 5.05 15.99 C 5.029 15.865 5.022 15.743 5.017 15.616 C 5.014 15.16 5.014 15.16 4.852 14.748 C 4.698 14.623 4.535 14.528 4.362 14.433 C 4.271 14.377 4.182 14.317 4.095 14.253 L 4.095 14.163 L 4.015 14.13 C 3.903 14.065 3.852 14.003 3.784 13.894 L 3.784 13.804 L 3.695 13.804 C 3.098 12.864 3.009 11.052 3.219 9.989 C 3.33 9.489 3.521 9.035 3.734 8.574 C 4.121 7.737 4.121 7.737 4.412 6.863 C 4.543 6.388 4.751 5.979 5.17 5.694 C 5.254 5.65 5.341 5.611 5.43 5.579 L 5.554 5.53 C 5.718 5.483 5.855 5.49 6.025 5.495 C 6.281 5.483 6.281 5.483 6.476 5.33 C 6.535 5.234 6.592 5.137 6.646 5.038 C 6.828 4.715 7.208 4.57 7.548 4.465 C 9.04 4.075 9.04 4.075 9.61 4.428 Z M 8.389 5.214 C 8.188 5.511 8.099 5.844 8.013 6.189 C 7.911 6.587 7.789 6.923 7.432 7.152 C 7.289 7.214 7.143 7.258 6.993 7.301 L 6.874 7.337 C 6.779 7.366 6.683 7.394 6.587 7.422 L 6.587 7.512 L 6.512 7.54 C 5.963 7.87 5.796 8.879 5.644 9.467 C 5.627 9.534 5.611 9.602 5.594 9.669 L 5.571 9.762 C 5.427 10.383 5.579 10.889 5.894 11.419 C 6.051 11.674 6.225 11.916 6.401 12.158 C 6.786 12.691 7.076 13.251 7.301 13.869 C 7.34 13.981 7.34 13.981 7.388 14.074 C 7.4 14.269 7.398 14.465 7.399 14.661 L 7.402 14.825 C 7.403 15.109 7.386 15.343 7.284 15.609 C 7.244 15.719 7.231 15.801 7.254 15.916 C 7.327 15.99 7.327 15.99 7.432 16.043 L 7.554 16.111 C 7.661 16.166 7.769 16.221 7.878 16.275 L 7.972 16.322 C 8.034 16.352 8.095 16.382 8.157 16.412 C 8.307 16.484 8.434 16.559 8.561 16.669 C 8.664 16.78 8.664 16.78 8.767 16.77 L 8.767 16.86 L 8.856 16.86 L 8.856 16.95 L 8.945 16.95 L 8.99 17.085 L 9.078 17.085 L 9.112 17.183 C 9.174 17.324 9.239 17.424 9.345 17.534 L 9.523 17.534 L 9.523 15.512 L 8.856 15.377 C 8.511 15.215 8.338 14.98 8.182 14.633 C 8.137 14.449 8.138 14.281 8.139 14.091 C 8.138 13.511 8.049 13.122 7.744 12.635 C 7.702 12.559 7.662 12.482 7.621 12.405 C 7.535 12.252 7.448 12.103 7.343 11.961 L 7.254 11.961 L 7.221 11.866 C 7.158 11.718 7.077 11.593 6.99 11.458 C 6.626 10.873 6.619 10.333 6.765 9.669 C 6.928 9.028 7.103 8.61 7.67 8.256 C 8.052 8.015 8.276 7.719 8.411 7.287 C 8.559 6.831 8.676 6.571 9.104 6.352 C 9.245 6.302 9.375 6.272 9.523 6.253 C 9.556 5.901 9.459 5.515 9.256 5.227 C 9.119 5.076 9.021 5.072 8.823 5.062 C 8.633 5.065 8.52 5.069 8.389 5.214 Z M 7.388 5.399 C 7.345 5.453 7.303 5.507 7.263 5.562 L 7.189 5.662 C 7.115 5.764 7.115 5.764 7.04 5.902 C 6.9 6.085 6.76 6.181 6.542 6.253 C 6.391 6.27 6.243 6.281 6.091 6.282 C 5.866 6.285 5.718 6.335 5.519 6.433 L 5.519 6.523 L 5.43 6.523 C 5.263 6.694 5.217 6.847 5.169 7.079 C 5.052 7.599 4.843 8.07 4.619 8.552 C 4.513 8.783 4.411 9.017 4.31 9.251 L 4.252 9.382 C 4.046 9.858 3.94 10.25 3.948 10.773 L 3.949 10.929 C 3.955 11.306 3.979 11.673 4.036 12.046 C 4.053 12.153 4.067 12.26 4.082 12.368 C 4.093 12.445 4.104 12.522 4.115 12.599 L 4.13 12.707 C 4.178 13.022 4.286 13.245 4.499 13.484 L 4.592 13.59 C 4.666 13.679 4.666 13.679 4.763 13.669 L 4.763 13.759 L 4.862 13.81 C 5.243 14.012 5.527 14.222 5.7 14.635 C 5.758 14.853 5.768 15.068 5.783 15.293 C 5.821 15.783 5.886 16.233 6.098 16.68 L 6.187 16.68 L 6.217 16.756 C 6.36 17.01 6.488 17.086 6.759 17.172 C 7.147 17.309 7.401 17.591 7.682 17.885 C 7.741 17.948 7.741 17.948 7.833 17.939 L 7.833 18.029 C 8.212 18.245 8.518 18.279 8.945 18.208 C 8.775 18.004 8.6 17.803 8.422 17.604 L 8.357 17.53 C 8.303 17.47 8.246 17.412 8.189 17.354 L 8.1 17.354 L 8.1 17.265 C 7.826 17.056 7.497 16.912 7.189 16.761 C 7.035 16.686 6.9 16.605 6.765 16.501 L 6.676 16.501 C 6.511 16.097 6.464 15.664 6.609 15.245 C 6.798 14.687 6.66 14.186 6.414 13.677 C 6.173 13.187 5.883 12.738 5.561 12.298 C 5.378 12.047 5.223 11.784 5.074 11.512 L 5.018 11.412 C 4.626 10.675 4.767 9.753 4.992 8.988 C 5.019 8.9 5.047 8.813 5.074 8.725 L 5.118 8.586 C 5.161 8.448 5.206 8.31 5.252 8.172 L 5.294 8.046 C 5.432 7.649 5.615 7.307 5.92 7.017 L 5.92 6.928 L 5.999 6.888 C 6.084 6.845 6.167 6.799 6.25 6.753 C 6.46 6.646 6.679 6.586 6.905 6.524 C 7.031 6.478 7.087 6.45 7.165 6.343 C 7.299 6.049 7.358 5.713 7.432 5.399 Z M 9.301 7.107 C 9.188 7.246 9.152 7.389 9.112 7.56 C 8.962 8.15 8.609 8.596 8.1 8.905 L 8.003 8.951 C 7.782 9.063 7.707 9.178 7.616 9.411 C 7.583 9.511 7.551 9.612 7.521 9.714 L 7.488 9.823 C 7.403 10.149 7.358 10.538 7.507 10.849 C 7.541 10.906 7.575 10.962 7.61 11.017 L 7.668 11.119 C 7.745 11.252 7.745 11.252 7.833 11.377 L 7.922 11.377 L 7.956 11.475 C 8.013 11.608 8.082 11.709 8.166 11.826 C 8.339 12.083 8.476 12.35 8.609 12.63 L 8.667 12.753 C 8.853 13.152 8.861 13.485 8.846 13.919 C 8.842 14.172 8.866 14.346 8.99 14.568 C 9.125 14.659 9.176 14.672 9.332 14.686 L 9.441 14.696 L 9.523 14.703 C 9.525 13.726 9.527 12.749 9.528 11.772 C 9.528 11.318 9.529 10.864 9.53 10.411 C 9.531 10.015 9.532 9.62 9.532 9.225 C 9.532 9.015 9.532 8.806 9.533 8.597 C 9.533 8.4 9.534 8.203 9.533 8.006 C 9.534 7.933 9.534 7.861 9.534 7.789 C 9.534 7.69 9.534 7.592 9.534 7.493 L 9.534 7.325 C 9.537 7.191 9.537 7.191 9.434 7.107 Z M 8.336 29.141 C 9.435 29.622 10.663 29.733 11.837 29.534 L 11.993 29.509 C 12.554 29.409 13.101 29.227 13.635 29.028 C 13.8 28.98 13.905 29.021 14.062 29.085 C 14.157 29.229 14.161 29.265 14.156 29.43 L 14.154 29.54 L 14.151 29.624 L 13.973 29.714 L 13.973 29.804 L 13.857 29.838 L 13.703 29.885 L 13.551 29.931 C 13.395 29.98 13.395 29.98 13.252 30.049 C 11.691 30.742 9.706 30.586 8.146 29.992 C 7.55 29.754 7.55 29.754 7.466 29.635 C 7.421 29.501 7.415 29.405 7.432 29.265 C 7.507 29.144 7.563 29.063 7.691 29.001 C 7.936 28.986 8.114 29.042 8.336 29.141 Z" fill="#a274d6"></path><path d="M 8.011 27.512 C 8.145 27.551 8.272 27.605 8.4 27.661 C 8.711 27.79 9.015 27.892 9.345 27.961 L 9.446 27.986 C 10.081 28.133 10.745 28.175 11.392 28.096 L 11.492 28.084 C 12.122 28.003 12.748 27.873 13.33 27.61 C 13.547 27.514 13.736 27.459 13.973 27.512 C 14.087 27.576 14.087 27.576 14.151 27.692 C 14.175 27.831 14.183 27.958 14.151 28.096 C 13.827 28.52 13.001 28.652 12.504 28.77 L 12.39 28.797 C 11.008 29.112 9.155 29.093 7.876 28.38 L 7.788 28.321 C 7.691 28.289 7.691 28.289 7.61 28.276 L 7.61 28.186 L 7.521 28.186 C 7.439 28.063 7.433 28 7.438 27.849 C 7.52 27.517 7.696 27.475 8.011 27.512 Z M 9.256 30.793 C 9.401 30.843 9.541 30.899 9.682 30.959 C 10.044 31.097 10.389 31.125 10.775 31.124 L 10.923 31.124 C 11.377 31.117 11.759 31.043 12.175 30.855 C 12.368 30.775 12.522 30.758 12.727 30.793 C 12.841 30.857 12.841 30.857 12.905 30.972 C 12.937 31.159 12.941 31.316 12.844 31.481 C 12.512 31.696 12.129 31.786 11.748 31.871 L 11.637 31.9 C 10.763 32.097 9.689 31.976 8.895 31.557 C 8.71 31.426 8.71 31.426 8.678 31.287 C 8.684 31.117 8.701 31.007 8.792 30.863 C 8.95 30.76 9.077 30.759 9.256 30.793 Z" fill="#a274d6"></path></svg>
