<svg xmlns="http://www.w3.org/2000/svg" viewBox="251.14 588.12 1148.36 511.19"><path d="m421.71576 1099.3125l5.46875 -29.953125q-16.140625 -0.515625 -26.6875 -8.859375q-10.546875 -8.328125 -16.796875 -21.34375q-6.515625 -12.765625 -9.125 -28.78125q-2.59375 -16.015625 -2.59375 -32.15625l0 -44.015625q-0.265625 -30.984375 -14.59375 -54.546875q-14.3125 -23.578125 -44.53125 -35.546875q30.21875 -12.25 44.671875 -35.8125q14.453125 -23.5625 14.453125 -54.8125l0 -44.265625q0 -15.890625 1.5625 -32.03125q1.5625 -16.15625 7.28125 -29.171875q5.46875 -12.765625 16.53125 -21.09375q11.078125 -8.328125 29.828125 -8.859375l-5.46875 -29.9375q-26.296875 0.78125 -44.796875 11.328125q-18.484375 10.546875 -29.9375 27.203125q-12.25 17.453125 -17.84375 39.46875q-5.59375 22.0 -5.59375 43.09375l0 44.265625q0 37.75 -17.84375 54.546875q-17.84375 16.796875 -54.562485 16.796875l0 37.765625q36.718735 0.265625 54.562485 17.1875q17.84375 16.921875 17.84375 54.421875l0 44.015625q0 20.828125 5.984375 42.046875q5.984375 21.234375 17.703125 38.421875q12.25 17.96875 30.734375 28.90625q18.484375 10.9375 43.75 11.71875z" fill="#5cc9b4" fill-rule="nonzero"/><path d="m702.0147 1004.0l-90.671875 -124.796875l0 124.796875l-91.203125 0l0 -394.65625l91.203125 0l0 218.125l90.125 -121.0625l112.546875 0l-123.734375 149.32812l124.796875 148.26562l-113.0625 0zm129.59674 -148.79688q0 -46.40625 18.921875 -81.0625q18.9375 -34.671875 52.796875 -53.328125q33.875 -18.671875 77.609375 -18.671875q56.0 0 93.59375 29.328125q37.609375 29.328125 49.34375 82.671875l-97.078125 0q-12.265625 -34.140625 -47.453125 -34.140625q-25.078125 0 -40.015625 19.46875q-14.921875 19.46875 -14.921875 55.734375q0 36.265625 14.921875 55.734375q14.9375 19.46875 40.015625 19.46875q35.1875 0 47.453125 -34.140625l97.078125 0q-11.734375 52.265625 -49.609375 82.140625q-37.859375 29.859375 -93.328125 29.859375q-43.734375 0 -77.609375 -18.65625q-33.859375 -18.671875 -52.796875 -53.34375q-18.921875 -34.671875 -18.921875 -81.0625z" fill="#5cc9b4" fill-rule="nonzero"/><path d="m1223.4469 1069.3594l5.46875 29.953125q25.53125 -0.515625 44.015625 -11.71875q18.484375 -11.203125 30.734375 -28.640625q11.96875 -17.453125 17.703125 -38.6875q5.734375 -21.21875 5.734375 -42.046875l0 -44.015625q0 -18.21875 4.15625 -31.5q4.171875 -13.28125 12.765625 -22.140625q8.859375 -9.109375 22.78125 -13.40625q13.9375 -4.296875 32.6875 -4.5625l0 -37.765625q-21.359375 0 -36.59375 -5.59375q-15.234375 -5.59375 -23.828125 -17.84375q-5.984375 -8.59375 -8.984375 -20.4375q-2.984375 -11.84375 -2.984375 -27.46875l0 -44.265625q0 -21.875 -5.859375 -44.265625q-5.859375 -22.40625 -19.140625 -40.375q-11.71875 -15.890625 -29.828125 -25.78125q-18.09375 -9.890625 -43.359375 -10.671875l-5.203125 29.9375q18.75 0.53125 29.6875 8.859375q10.9375 8.328125 16.671875 21.09375q5.46875 13.015625 7.15625 29.171875q1.6875 16.140625 1.6875 32.03125l0 44.265625q0 20.3125 5.984375 37.625q6.0 17.3125 18.5 30.34375q6.515625 7.03125 15.234375 12.765625q8.71875 5.71875 19.140625 9.890625q-10.15625 4.15625 -18.625 9.625q-8.453125 5.46875 -15.234375 12.25q-12.75 12.75 -18.875 30.203125q-6.125 17.453125 -6.125 38.015625l0 44.015625q0 16.140625 -2.734375 32.15625q-2.734375 16.015625 -8.984375 28.78125q-6.5 13.015625 -17.1875 21.34375q-10.671875 8.34375 -26.5625 8.859375z" fill="#5cc9b4" fill-rule="nonzero"/></svg>
