<svg xmlns="http://www.w3.org/2000/svg" viewBox="0 0 103.26 117.39"><path d="M 60.52999999999999,0.0 C 57.20999999999999,0.0 53.93999999999998,0.72 51.62999999999999,1.67 C 49.319999999999986,0.72 46.04999999999999,0.0 42.72999999999999,0.0 C 28.099999999999987,0.0 14.889999999999986,13.84 14.889999999999986,32.82 C 14.889999999999986,53.519999999999996 31.799999999999986,69.52000000000001 51.62999999999999,69.52000000000001 C 71.46,69.52000000000001 88.36999999999999,53.52000000000001 88.36999999999999,32.82000000000001 C 88.36999999999999,13.84 75.16,0.0 60.52999999999999,0.0 L 60.52999999999999,0.0 M 51.62999999999999,11.27 C 54.44999999999999,12.95 58.16999999999999,17.81 58.16999999999999,23.29 C 58.16999999999999,27.31 55.51999999999999,30.48 51.62999999999999,30.48 C 47.73999999999999,30.48 45.08999999999999,27.32 45.08999999999999,23.29 C 45.08999999999999,17.81 48.80999999999999,12.95 51.62999999999999,11.27 L 51.62999999999999,11.27 M 51.62999999999999,60.48 C 36.45999999999999,60.48 23.919999999999987,48.28 23.919999999999987,32.64 C 23.919999999999987,18.36 34.22999999999999,8.600000000000001 42.329999999999984,8.96 C 38.48999999999999,12.780000000000001 36.16999999999999,18.35 36.16999999999999,23.75 C 36.16999999999999,33.019999999999996 43.52999999999999,39.519999999999996 51.639999999999986,39.519999999999996 C 59.749999999999986,39.519999999999996 67.10999999999999,33.019999999999996 67.10999999999999,23.749999999999996 C 67.10999999999999,18.359999999999996 64.77999999999999,12.789999999999996 60.94999999999999,8.959999999999997 C 69.04999999999998,8.599999999999998 79.35999999999999,18.349999999999998 79.35999999999999,32.64 C 79.35999999999999,48.28 66.80999999999999,60.480000000000004 51.649999999999984,60.480000000000004 L 51.62999999999999,60.48" fill="#0072bc" fill-rule="evenodd"/><path d="M 26.700000000000003,108.42320000000001 C 26.53,108.09320000000002 15.620000000000005,86.83320000000002 14.280000000000001,84.74320000000002 C 12.739999999999995,82.32320000000001 10.870000000000005,80.64320000000002 7.280000000000001,80.64320000000002 C 3.950000000000003,80.64320000000002 0.0,82.12320000000001 0.0,90.12320000000003 L 0.0,116.99320000000002 L 8.049999999999997,116.99320000000002 L 8.049999999999997,94.58320000000002 C 8.049999999999997,92.97320000000002 7.950000000000003,90.59320000000002 7.929999999999993,90.11320000000002 C 7.909999999999997,89.72320000000002 7.929999999999993,89.34320000000002 8.129999999999995,89.23320000000001 C 8.36,89.10320000000002 8.58999999999999,89.31320000000002 8.75,89.61320000000002 C 8.909999999999997,89.91320000000002 19.019999999999996,109.91320000000002 21.17,113.29320000000001 C 22.710000000000008,115.71320000000001 24.58,117.39320000000001 28.17,117.39320000000001 C 31.5,117.39320000000001 35.45,115.91320000000002 35.45,107.91320000000002 L 35.45,81.04320000000001 L 27.400000000000006,81.04320000000001 L 27.400000000000006,103.45320000000001 C 27.400000000000006,105.06320000000002 27.5,107.44320000000002 27.52000000000001,107.92320000000001 C 27.540000000000006,108.31320000000002 27.52000000000001,108.69320000000002 27.320000000000007,108.80320000000002 C 27.090000000000003,108.93320000000003 26.860000000000014,108.72320000000002 26.700000000000003,108.42320000000001" fill="#0072bc"/><path d="M 38.22,81.05320000000002 L 38.22,88.6132 L 49.749999999999986,88.6132 L 49.749999999999986,116.99320000000002 L 57.90999999999998,116.99320000000002 L 57.90999999999998,88.61320000000002 L 69.43999999999998,88.61320000000002 L 69.43999999999998,81.05320000000002 L 38.219999999999985,81.05320000000002 L 38.22,81.05320000000002" fill="#0072bc"/><path d="M 72.02999999999999,81.05320000000002 L 72.02999999999999,88.6132 L 83.55999999999999,88.6132 L 83.55999999999999,116.99320000000002 L 91.72999999999998,116.99320000000002 L 91.72999999999998,88.61320000000002 L 103.25999999999998,88.61320000000002 L 103.25999999999998,81.05320000000002 L 72.02999999999999,81.05320000000002 L 72.02999999999999,81.05320000000002" fill="#0072bc"/></svg>
