<svg xmlns="http://www.w3.org/2000/svg" viewBox="0 0 72.86 98.14" fill-rule="evenodd" clip-rule="evenodd"><path d="M4.31 89.19 L0.13 80.23 L23.15 79.93 L46.17 79.63 L49.08 76.36 C52.16 72.92 52.76 69.27 51.02 64.69 C49.9 61.73 44.54 58.14 41.25 58.13 C39.08 58.13 39 57.79 39 49.13 L39 40.13 L41.82 40.13 C46.74 40.13 54.55 43 59.12 46.49 C68.96 54.01 72.86 69.21 67.78 80.26 C64.45 87.51 61.17 91.16 54.83 94.67 L49.5 97.63 L29 97.88 L8.5 98.14 L4.31 89.19 Z M18.78 56.19 C7.17 51.65 0 41.31 0 29.13 C0 17.79 5.79 8.5 16.38 2.83 C20.25 0.76 21.98 0.61 45.2 0.31 L69.89 0 L65.7 9.06 L61.52 18.13 L43.91 18.13 C27.23 18.13 26.12 18.25 22.9 20.41 C16.44 24.75 16.71 34.15 23.42 38.24 C25.11 39.27 27.51 40.12 28.75 40.12 C30.92 40.13 31 40.46 31 49.13 L31 58.13 L27.25 58.08 C25.19 58.05 21.38 57.2 18.78 56.19 Z" fill="#eef2f6"/></svg>
