<svg xmlns="http://www.w3.org/2000/svg" viewBox="0 0 442.72 279.51" fill-rule="evenodd"><defs><linearGradient id="tcsGrad" x1="0" y1="0" x2="1" y2="1"><stop offset="0" stop-color="#f6a53a"/><stop offset="0.32" stop-color="#ee6a34"/><stop offset="0.58" stop-color="#e23150"/><stop offset="0.8" stop-color="#cf3b8f"/><stop offset="1" stop-color="#bd34a6"/></linearGradient></defs><path d="M202.76 279.51C173.16 276.26 154.22 268.69 135.08 252.45L128.85 247.16L125.89 251.46C117.75 263.28 103.2 273.08 88.24 276.8C78.59 279.21 55.93 279.2 46.26 276.8C28.63 272.42 14.37 261.52 7.46 247.13C-0.03 231.54 0.39 238.66 0 122.14C-0.26 44.32 -0.05 16.62 0.82 13.64C3.42 4.77 9.9 0 19.37 0C26.68 -0 32.42 3.21 35.75 9.16C38.21 13.54 38.27 14.17 38.58 37.39L38.89 61.14L65.01 61.14C89.39 61.14 91.42 61.28 95.41 63.21C106.57 68.61 106.78 84.44 95.78 90.29C92.64 91.96 89.66 92.14 65.53 92.14L38.76 92.14L38.76 153.93C38.76 221.88 38.84 222.92 44.84 232.27C50.86 241.64 59.97 245.6 74.08 244.96C82.17 244.6 84.01 244.15 89.58 241.17C96.54 237.45 103.13 230.76 107.65 222.82L110.6 217.64L108.18 210.47C103.27 195.88 102.41 189.8 102.41 169.64C102.41 149.35 103.25 143.48 108.34 128.32C116.79 103.16 134.84 82.29 158.26 70.61C174.05 62.75 185.22 60.06 204.92 59.41C228.38 58.62 247.82 62.14 264.44 70.18C276.02 75.77 280.12 82.33 277.72 91.38C276.28 96.77 273.62 99.65 268.11 101.75C262.47 103.91 257.44 103.21 245.77 98.64C231.97 93.25 224.88 91.86 210.76 91.78C191.59 91.67 177.49 96.51 165.29 107.38C148.47 122.36 140.56 142.35 140.64 169.64C140.75 208.34 160.38 235.95 193.7 244.27C200.95 246.08 204.19 246.31 216.7 245.91C229.22 245.51 232.31 245.07 238.75 242.77C262.37 234.34 279.8 214.61 292.3 182.17C294.1 177.48 298.58 163.74 302.24 151.64C310.89 123.03 312.77 117.84 319.22 104.59C335.06 72.06 354.12 59.14 386.31 59.14C413.77 59.14 436.7 67.77 439.8 79.27C442.57 89.58 435.86 98.17 425.05 98.13C422.97 98.12 417.44 96.76 412.76 95.11C396.25 89.27 386.02 87.96 377.32 90.57C358.3 96.3 355.09 115.87 370.68 131.06C373.41 133.72 385.87 143.03 398.37 151.75C428.4 172.7 437.72 182.06 442.72 196.27C450.28 217.78 446.74 240 433.13 256.56C414.76 278.91 376.41 285.7 339.33 273.17C324.27 268.07 319.52 264.4 317.7 256.42C316.54 251.33 318.05 246.2 321.75 242.66C326.32 238.28 333.49 238.08 345.76 241.99C361.27 246.93 367.12 248.14 375.46 248.14C389.78 248.14 401.76 241.92 406.96 231.77C409.95 225.94 410.55 215.02 408.25 208.1C406.08 201.58 401.65 197.12 387.88 187.64C360.39 168.72 351.6 162.1 343.93 154.59C339.34 150.1 335.43 146.92 335.23 147.53C335.02 148.14 332.8 155.39 330.29 163.64C317.8 204.68 305.55 229.24 288.28 247.91C273.66 263.69 254.6 274.11 234.12 277.52C224.57 279.11 208.42 280.13 202.76 279.51Z" fill="url(#tcsGrad)"/></svg>
